<mxfile host="app.diagrams.net" modified="2023-06-30T08:50:32.667Z" agent="Mozilla/5.0 (X11; Ubuntu; Linux x86_64; rv:109.0) Gecko/20100101 Firefox/114.0" etag="p7swu4QrRI_7H4y_OFSX" version="21.5.1" type="device">
  <diagram name="Page-1" id="BGL2PLS3qiX7nZ-6uJS4">
    <mxGraphModel dx="1360" dy="795" grid="1" gridSize="10" guides="1" tooltips="1" connect="1" arrows="1" fold="1" page="1" pageScale="1" pageWidth="850" pageHeight="1100" math="0" shadow="0">
      <root>
        <mxCell id="0" />
        <mxCell id="1" parent="0" />
        <mxCell id="c_tL2bnlLRqJCd_EpH1U-1" value="&lt;b style=&quot;font-size: 15px;&quot;&gt;OPEN&lt;/b&gt;" style="rounded=1;whiteSpace=wrap;html=1;fillColor=#f8cecc;strokeColor=#b85450;fontSize=15;" vertex="1" parent="1">
          <mxGeometry x="480" y="410" width="120" height="60" as="geometry" />
        </mxCell>
        <mxCell id="c_tL2bnlLRqJCd_EpH1U-2" value="&lt;b style=&quot;font-size: 15px;&quot;&gt;HALF-OPEN&lt;/b&gt;" style="rounded=1;whiteSpace=wrap;html=1;fillColor=#fff2cc;strokeColor=#d6b656;fontSize=15;" vertex="1" parent="1">
          <mxGeometry x="160" y="410" width="120" height="60" as="geometry" />
        </mxCell>
        <mxCell id="c_tL2bnlLRqJCd_EpH1U-3" value="&lt;b style=&quot;font-size: 15px;&quot;&gt;CLOSED&lt;/b&gt;" style="rounded=1;whiteSpace=wrap;html=1;strokeWidth=1;fillColor=#d5e8d4;strokeColor=#82b366;fontSize=15;" vertex="1" parent="1">
          <mxGeometry x="320" y="210" width="120" height="60" as="geometry" />
        </mxCell>
        <mxCell id="c_tL2bnlLRqJCd_EpH1U-7" value="" style="endArrow=classic;html=1;rounded=0;entryX=0;entryY=1;entryDx=0;entryDy=0;exitX=0.5;exitY=0;exitDx=0;exitDy=0;strokeWidth=2;fontSize=15;" edge="1" parent="1" source="c_tL2bnlLRqJCd_EpH1U-2" target="c_tL2bnlLRqJCd_EpH1U-3">
          <mxGeometry width="50" height="50" relative="1" as="geometry">
            <mxPoint x="600" y="366" as="sourcePoint" />
            <mxPoint x="460" y="506" as="targetPoint" />
            <Array as="points" />
          </mxGeometry>
        </mxCell>
        <mxCell id="c_tL2bnlLRqJCd_EpH1U-18" value="Anfrage erfolgreich" style="edgeLabel;html=1;align=center;verticalAlign=middle;resizable=0;points=[];fontSize=15;" vertex="1" connectable="0" parent="c_tL2bnlLRqJCd_EpH1U-7">
          <mxGeometry x="0.0323" y="1" relative="1" as="geometry">
            <mxPoint as="offset" />
          </mxGeometry>
        </mxCell>
        <mxCell id="c_tL2bnlLRqJCd_EpH1U-9" value="" style="endArrow=classic;html=1;rounded=0;exitX=1;exitY=1;exitDx=0;exitDy=0;entryX=0.5;entryY=0;entryDx=0;entryDy=0;strokeWidth=2;fontSize=15;" edge="1" parent="1" source="c_tL2bnlLRqJCd_EpH1U-3" target="c_tL2bnlLRqJCd_EpH1U-1">
          <mxGeometry width="50" height="50" relative="1" as="geometry">
            <mxPoint x="400" y="586" as="sourcePoint" />
            <mxPoint x="450" y="536" as="targetPoint" />
            <Array as="points" />
          </mxGeometry>
        </mxCell>
        <mxCell id="c_tL2bnlLRqJCd_EpH1U-16" value="Fehlerschwelle überschritten" style="edgeLabel;html=1;align=center;verticalAlign=middle;resizable=0;points=[];fontSize=15;" vertex="1" connectable="0" parent="c_tL2bnlLRqJCd_EpH1U-9">
          <mxGeometry x="-0.0492" y="1" relative="1" as="geometry">
            <mxPoint as="offset" />
          </mxGeometry>
        </mxCell>
        <mxCell id="c_tL2bnlLRqJCd_EpH1U-11" value="" style="endArrow=classic;html=1;rounded=0;strokeWidth=2;exitX=0;exitY=0;exitDx=0;exitDy=0;entryX=1;entryY=0;entryDx=0;entryDy=0;fontSize=15;" edge="1" parent="1">
          <mxGeometry width="50" height="50" relative="1" as="geometry">
            <mxPoint x="480" y="420" as="sourcePoint" />
            <mxPoint x="280" y="420" as="targetPoint" />
            <Array as="points">
              <mxPoint x="330" y="420" />
              <mxPoint x="310" y="420" />
            </Array>
          </mxGeometry>
        </mxCell>
        <mxCell id="c_tL2bnlLRqJCd_EpH1U-13" value="&lt;div style=&quot;font-size: 15px;&quot;&gt;Nach Timeout&lt;/div&gt;" style="edgeLabel;html=1;align=center;verticalAlign=middle;resizable=0;points=[];fontSize=15;" vertex="1" connectable="0" parent="c_tL2bnlLRqJCd_EpH1U-11">
          <mxGeometry x="0.125" y="-4" relative="1" as="geometry">
            <mxPoint x="13" y="4" as="offset" />
          </mxGeometry>
        </mxCell>
        <mxCell id="c_tL2bnlLRqJCd_EpH1U-12" value="" style="endArrow=classic;html=1;rounded=0;strokeWidth=2;fontSize=15;" edge="1" parent="1">
          <mxGeometry width="50" height="50" relative="1" as="geometry">
            <mxPoint x="280" y="460" as="sourcePoint" />
            <mxPoint x="480" y="460" as="targetPoint" />
          </mxGeometry>
        </mxCell>
        <mxCell id="c_tL2bnlLRqJCd_EpH1U-17" value="&lt;div style=&quot;font-size: 15px;&quot;&gt;Fehlerschwelle&lt;/div&gt;&lt;div style=&quot;font-size: 15px;&quot;&gt;&amp;nbsp;überschritten&lt;/div&gt;" style="edgeLabel;html=1;align=center;verticalAlign=middle;resizable=0;points=[];rotation=0;fontSize=15;" vertex="1" connectable="0" parent="c_tL2bnlLRqJCd_EpH1U-12">
          <mxGeometry x="-0.0875" y="3" relative="1" as="geometry">
            <mxPoint x="9" y="3" as="offset" />
          </mxGeometry>
        </mxCell>
        <mxCell id="c_tL2bnlLRqJCd_EpH1U-14" value="" style="endArrow=classic;html=1;rounded=0;entryX=0.5;entryY=0;entryDx=0;entryDy=0;strokeWidth=2;fontSize=15;" edge="1" parent="1" target="c_tL2bnlLRqJCd_EpH1U-3">
          <mxGeometry width="50" height="50" relative="1" as="geometry">
            <mxPoint x="380" y="140" as="sourcePoint" />
            <mxPoint x="410" y="586" as="targetPoint" />
          </mxGeometry>
        </mxCell>
        <mxCell id="c_tL2bnlLRqJCd_EpH1U-15" value="Ausgangslage" style="edgeLabel;html=1;align=center;verticalAlign=middle;resizable=0;points=[];fontSize=15;" vertex="1" connectable="0" parent="c_tL2bnlLRqJCd_EpH1U-14">
          <mxGeometry x="-0.5667" relative="1" as="geometry">
            <mxPoint x="-1" y="15" as="offset" />
          </mxGeometry>
        </mxCell>
      </root>
    </mxGraphModel>
  </diagram>
</mxfile>
